<svg width="300" height="52" viewBox="0 0 300 52" fill="none" xmlns="http://www.w3.org/2000/svg">
<path d="M275.144 12.1687H211.549C203.966 12.1687 197.819 18.3182 197.819 25.9039C197.819 33.4897 203.966 39.6392 211.549 39.6392H275.144C282.727 39.6392 288.875 33.4897 288.875 25.9039C288.875 18.3182 282.727 12.1687 275.144 12.1687Z" fill="url(#paint0_linear)"/>
<path d="M227.955 27.8413V30.0881H226.914V28.7956H222.257V30.0881H221.208L221.217 27.8413H221.477C221.858 27.824 222.124 27.5435 222.275 26.9998C222.431 26.4504 222.526 25.6668 222.561 24.6489L222.63 22.7231H227.079V27.8413H227.955ZM223.549 24.7531C223.52 25.5396 223.457 26.196 223.359 26.7223C223.26 27.2428 223.104 27.6158 222.89 27.8413H225.969V23.6773H223.593L223.549 24.7531ZM230.874 28.8563C230.406 28.8563 229.984 28.7551 229.608 28.5527C229.232 28.3502 228.938 28.0698 228.724 27.7112C228.516 27.3468 228.411 26.9362 228.411 26.4794C228.411 26.0225 228.516 25.6148 228.724 25.2562C228.938 24.8976 229.232 24.6171 229.608 24.4147C229.984 24.2123 230.406 24.1111 230.874 24.1111C231.348 24.1111 231.773 24.2123 232.149 24.4147C232.525 24.6171 232.817 24.8976 233.025 25.2562C233.239 25.6148 233.346 26.0225 233.346 26.4794C233.346 26.9362 233.239 27.3468 233.025 27.7112C232.817 28.0698 232.525 28.3502 232.149 28.5527C231.773 28.7551 231.348 28.8563 230.874 28.8563ZM230.874 27.9281C231.273 27.9281 231.603 27.795 231.863 27.529C232.123 27.263 232.253 26.9131 232.253 26.4794C232.253 26.0456 232.123 25.6957 231.863 25.4297C231.603 25.1637 231.273 25.0306 230.874 25.0306C230.475 25.0306 230.146 25.1637 229.886 25.4297C229.631 25.6957 229.504 26.0456 229.504 26.4794C229.504 26.9131 229.631 27.263 229.886 27.529C230.146 27.795 230.475 27.9281 230.874 27.9281ZM236.923 24.3887C237.362 24.3887 237.75 24.4841 238.085 24.675C238.42 24.86 238.681 25.1203 238.866 25.4557C239.056 25.7911 239.152 26.1757 239.152 26.6095C239.152 27.0548 239.048 27.4509 238.84 27.7979C238.631 28.1391 238.339 28.4052 237.964 28.596C237.588 28.7869 237.16 28.8823 236.68 28.8823C235.877 28.8823 235.255 28.6163 234.816 28.0842C234.376 27.5521 234.157 26.7859 234.157 25.7854C234.157 24.8543 234.356 24.1169 234.755 23.5733C235.154 23.0296 235.764 22.6711 236.585 22.4976L238.735 22.0378L238.892 23.0094L236.94 23.4084C236.38 23.5241 235.96 23.7207 235.683 23.9983C235.405 24.2759 235.244 24.6663 235.197 25.1694C235.405 24.9208 235.657 24.7299 235.952 24.5969C236.247 24.4581 236.57 24.3887 236.923 24.3887ZM236.706 28.0062C237.105 28.0062 237.426 27.8789 237.669 27.6244C237.917 27.3642 238.042 27.0346 238.042 26.6355C238.042 26.2365 237.917 25.9155 237.669 25.6726C237.426 25.4297 237.105 25.3083 236.706 25.3083C236.302 25.3083 235.975 25.4297 235.726 25.6726C235.478 25.9155 235.353 26.2365 235.353 26.6355C235.353 27.0403 235.478 27.37 235.726 27.6244C235.981 27.8789 236.307 28.0062 236.706 28.0062ZM241.867 24.1111C242.55 24.1111 243.07 24.2759 243.428 24.6056C243.793 24.9294 243.975 25.421 243.975 26.0803V28.7956H242.951V28.2317C242.819 28.4341 242.628 28.5902 242.379 28.7001C242.136 28.8042 241.841 28.8563 241.495 28.8563C241.148 28.8563 240.844 28.7984 240.584 28.6828C240.324 28.5613 240.122 28.3965 239.977 28.1883C239.838 27.9743 239.769 27.7343 239.769 27.4683C239.769 27.0519 239.922 26.7194 240.228 26.4707C240.541 26.2162 241.029 26.089 241.694 26.089H242.891V26.0196C242.891 25.6957 242.792 25.447 242.596 25.2735C242.405 25.1 242.119 25.0133 241.737 25.0133C241.477 25.0133 241.22 25.0538 240.966 25.1347C240.717 25.2157 240.506 25.3285 240.333 25.4731L239.908 24.6837C240.15 24.4986 240.442 24.3569 240.783 24.2586C241.125 24.1603 241.486 24.1111 241.867 24.1111ZM241.72 28.0669C241.992 28.0669 242.232 28.0061 242.44 27.8847C242.654 27.7574 242.804 27.5782 242.891 27.3468V26.809H241.772C241.148 26.809 240.836 27.0143 240.836 27.4249C240.836 27.6216 240.914 27.7777 241.07 27.8934C241.226 28.009 241.443 28.0669 241.72 28.0669ZM248.672 26.3839C249.244 26.5574 249.531 26.9276 249.531 27.4943C249.531 27.9107 249.375 28.2317 249.062 28.4572C248.75 28.6828 248.288 28.7956 247.675 28.7956H245.316V24.1631H247.579C248.146 24.1631 248.588 24.2672 248.906 24.4754C249.224 24.6836 249.383 24.9786 249.383 25.3603C249.383 25.5974 249.32 25.8027 249.192 25.9762C249.071 26.1497 248.898 26.2856 248.672 26.3839ZM246.348 26.0977H247.484C248.045 26.0977 248.325 25.9039 248.325 25.5164C248.325 25.1405 248.045 24.9526 247.484 24.9526H246.348V26.0977ZM247.588 28.0062C248.184 28.0062 248.481 27.8124 248.481 27.4249C248.481 27.2225 248.412 27.0721 248.273 26.9738C248.134 26.8697 247.918 26.8177 247.623 26.8177H246.348V28.0062H247.588ZM250.685 24.1631H251.769V27.2167L254.327 24.1631H255.316V28.7956H254.232V25.742L251.682 28.7956H250.685V24.1631ZM260.442 25.0827H258.82V28.7956H257.736V25.0827H256.106V24.1631H260.442V25.0827ZM263.553 25.6899C264.142 25.6899 264.593 25.8229 264.905 26.089C265.223 26.355 265.382 26.7309 265.382 27.2167C265.382 27.7256 265.209 28.1189 264.862 28.3965C264.515 28.6741 264.027 28.81 263.396 28.8042L261.228 28.7956V24.1631H262.312V25.6813L263.553 25.6899ZM263.301 28.0062C263.619 28.0119 263.862 27.9454 264.029 27.8066C264.197 27.6678 264.281 27.4654 264.281 27.1994C264.281 26.9391 264.2 26.7483 264.038 26.6268C263.876 26.5054 263.631 26.4418 263.301 26.436L262.312 26.4273V27.9975L263.301 28.0062Z" fill="white"/>
<path d="M11 20.1207C11 14.5312 15.5297 10 21.1173 10H32.68C38.2677 10 42.7973 14.5312 42.7973 20.1207V31.6872C42.7973 37.2767 38.2677 41.8079 32.68 41.8079H21.1173C15.5297 41.8079 11 37.2767 11 31.6872V20.1207Z" fill="#F6F4F5"/>
<path d="M23.9243 25.1955C24.4562 25.2823 24.8638 25.4818 25.1471 25.7941C25.4304 26.1006 25.572 26.4823 25.572 26.9392C25.572 27.292 25.4795 27.6187 25.2945 27.9195C25.1095 28.2144 24.8262 28.4515 24.4446 28.6308C24.0689 28.8101 23.6064 28.8997 23.0571 28.8997C22.6293 28.8997 22.2073 28.8448 21.791 28.7349C21.3805 28.6193 21.0308 28.4573 20.7417 28.2491L21.288 27.1734C21.5193 27.3469 21.7852 27.4828 22.0859 27.5811C22.3923 27.6737 22.7045 27.72 23.0224 27.72C23.3751 27.72 23.6526 27.6534 23.8549 27.5204C24.0573 27.3816 24.1585 27.1879 24.1585 26.9392C24.1585 26.4418 23.7798 26.1932 23.0224 26.1932H22.3807V25.2649L23.6295 23.8509H21.0452V22.7231H25.2945V23.634L23.9243 25.1955ZM26.6022 22.7231H29.3599C30.019 22.7231 30.6 22.8504 31.103 23.1049C31.6118 23.3535 32.0049 23.7063 32.2824 24.1632C32.5657 24.6201 32.7073 25.1521 32.7073 25.7594C32.7073 26.3666 32.5657 26.8987 32.2824 27.3556C32.0049 27.8125 31.6118 28.1682 31.103 28.4226C30.6 28.6713 30.019 28.7956 29.3599 28.7956H26.6022V22.7231ZM29.2906 27.6419C29.8976 27.6419 30.3803 27.4742 30.7388 27.1387C31.103 26.7975 31.2851 26.3377 31.2851 25.7594C31.2851 25.1811 31.103 24.7242 30.7388 24.3887C30.3803 24.0475 29.8976 23.8769 29.2906 23.8769H28.0071V27.6419H29.2906Z" fill="url(#paint1_linear)"/>
<path d="M50.7467 20.1207C50.7467 14.5312 55.2764 10 60.864 10H72.4267C78.0144 10 82.544 14.5312 82.544 20.1207V31.6872C82.544 37.2767 78.0144 41.8079 72.4267 41.8079H60.864C55.2764 41.8079 50.7467 37.2767 50.7467 31.6872V20.1207Z" fill="#F6F4F5"/>
<path d="M62.3093 22.2894V20.8436H63.2729V22.2894H64.7182V23.2531H63.2729V24.6989H62.3093V23.2531H60.864V22.2894H62.3093ZM63.7547 25.1811V23.7352H65.2V22.2894H68.5725L69.4541 23.2531H70.9813C71.5111 23.2531 71.9447 23.6868 71.9447 24.2174V30.0007C71.9447 30.5305 71.5111 30.9643 70.9813 30.9643H63.2729C62.7429 30.9643 62.3093 30.5305 62.3093 30.0007V25.1811H63.7547ZM67.1272 29.5185C68.4569 29.5185 69.536 28.4392 69.536 27.109C69.536 25.7789 68.4569 24.6989 67.1272 24.6989C65.7974 24.6989 64.7182 25.7789 64.7182 27.109C64.7182 28.4392 65.7974 29.5185 67.1272 29.5185ZM65.5854 27.109C65.5854 27.9621 66.2744 28.651 67.1272 28.651C67.9799 28.651 68.6688 27.9621 68.6688 27.109C68.6688 26.256 67.9799 25.5664 67.1272 25.5664C66.2744 25.5664 65.5854 26.256 65.5854 27.109Z" fill="url(#paint2_linear)"/>
<path d="M89.7708 20.1207C89.7708 14.5312 94.3004 10 99.8881 10H111.451C117.038 10 121.568 14.5312 121.568 20.1207V31.6872C121.568 37.2767 117.038 41.8079 111.451 41.8079H99.8881C94.3004 41.8079 89.7708 37.2767 89.7708 31.6872V20.1207Z" fill="#F6F4F5"/>
<path d="M111.691 21.0844H105.805L105.051 18.8788C105.01 18.7566 104.895 18.6749 104.766 18.6749H99.6474C98.9833 18.6749 98.4427 19.2149 98.4427 19.88V29.5185C98.4427 30.1828 98.9833 30.7236 99.6474 30.7236H105.461L106.291 32.9378C106.335 33.0549 106.448 33.133 106.573 33.133H111.691C112.356 33.133 112.896 32.593 112.896 31.9279V22.2894C112.896 21.6251 112.356 21.0844 111.691 21.0844ZM99.6474 30.1207C99.315 30.1207 99.0447 29.8503 99.0447 29.5185V19.88C99.0447 19.5475 99.315 19.2771 99.6474 19.2771H104.551L108.259 30.1207H99.6474ZM106.104 30.7236H108.017L106.678 32.2546L106.104 30.7236ZM112.294 31.9279C112.294 32.2605 112.024 32.5308 111.691 32.5308H107.236L108.907 30.6202L108.903 30.6166C108.91 30.6093 108.92 30.6057 108.926 30.5971C108.982 30.5183 108.997 30.4163 108.966 30.3245L108.895 30.1207H110.788C110.955 30.1207 111.089 29.9862 111.089 29.8199C111.089 29.6529 110.955 29.5185 110.788 29.5185H108.689L108.278 28.3134H110.788C110.955 28.3134 111.089 28.1789 111.089 28.0127C111.089 27.8457 110.955 27.7112 110.788 27.7112H108.072L107.66 26.5061H110.788C110.955 26.5061 111.089 26.3717 111.089 26.2054C111.089 26.0384 110.955 25.904 110.788 25.904H107.453L107.041 24.6989H110.788C110.955 24.6989 111.089 24.5644 111.089 24.3981C111.089 24.2312 110.955 24.0967 110.788 24.0967H106.835L106.011 21.6873H111.691C112.024 21.6873 112.294 21.9576 112.294 22.2894V31.9279Z" fill="url(#paint3_linear)"/>
<path d="M100.551 24.0967H104.766C104.932 24.0967 105.067 23.9622 105.067 23.7952C105.067 23.629 104.932 23.4945 104.766 23.4945H104.736C104.616 22.6711 104.025 22.0075 103.242 21.7798C103.247 21.748 103.261 21.7198 103.261 21.6872C103.261 21.3547 102.99 21.0844 102.658 21.0844C102.326 21.0844 102.056 21.3547 102.056 21.6872C102.056 21.7198 102.07 21.748 102.075 21.7798C101.292 22.0075 100.7 22.6711 100.581 23.4945H100.551C100.384 23.4945 100.249 23.629 100.249 23.7952C100.249 23.9622 100.384 24.0967 100.551 24.0967ZM102.658 22.2894C103.386 22.2894 103.994 22.8077 104.134 23.4945H101.183C101.323 22.8077 101.931 22.2894 102.658 22.2894Z" fill="url(#paint4_linear)"/>
<path d="M104.766 25.9039H100.551C100.384 25.9039 100.249 26.0384 100.249 26.2054C100.249 26.3716 100.384 26.5061 100.551 26.5061H104.766C104.932 26.5061 105.067 26.3716 105.067 26.2054C105.067 26.0384 104.932 25.9039 104.766 25.9039Z" fill="url(#paint5_linear)"/>
<path d="M104.766 27.7112H100.551C100.384 27.7112 100.249 27.8457 100.249 28.0127C100.249 28.1789 100.384 28.3134 100.551 28.3134H104.766C104.932 28.3134 105.067 28.1789 105.067 28.0127C105.067 27.8457 104.932 27.7112 104.766 27.7112Z" fill="url(#paint6_linear)"/>
<path d="M129.517 20.1207C129.517 14.5312 134.047 10 139.635 10H151.197C156.785 10 161.315 14.5312 161.315 20.1207V31.6872C161.315 37.2767 156.785 41.8079 151.197 41.8079H139.635C134.047 41.8079 129.517 37.2767 129.517 31.6872V20.1207Z" fill="#F6F4F5"/>
<path opacity="0.5" d="M144.938 35.3018C150.39 35.3018 154.811 30.7973 154.811 25.2403C154.811 20.8928 152.104 17.1886 148.314 15.7833L136.021 29.5669C137.609 32.9581 141.005 35.3018 144.938 35.3018Z" fill="url(#paint7_linear)"/>
<path d="M145.368 29.1635H145.253C145.128 29.1635 145.026 29.0623 145.026 28.9366C145.026 28.8108 145.128 28.7095 145.253 28.7095H145.368C145.477 28.7095 145.535 28.6011 145.535 28.5997C145.897 27.9072 146.333 27.8638 146.568 27.8399C146.598 27.837 146.64 27.8334 146.653 27.8291C146.66 27.8212 146.669 27.7821 146.669 27.7553C146.669 27.717 146.613 27.686 146.613 27.686C146.298 27.5147 145.531 27.4929 145.26 27.4973C145.135 27.5067 145.031 27.4004 145.029 27.2746C145.026 27.1496 145.125 27.0455 145.251 27.0433C145.362 27.0411 146.348 27.0289 146.814 27.2783C146.933 27.3361 147.124 27.4958 147.124 27.751C147.128 27.8913 147.066 28.166 146.801 28.2585C146.74 28.2795 146.678 28.286 146.613 28.2925C146.423 28.3113 146.186 28.3344 145.941 28.8043C145.877 28.9344 145.682 29.1635 145.368 29.1635Z" fill="black"/>
<path d="M143.645 30.6007C143.599 30.6007 143.553 30.5993 143.506 30.5964C142.983 30.5639 142.501 30.352 142.15 30.0014C141.79 29.6429 141.608 29.1816 141.638 28.7038C141.702 27.6758 142.276 27.3656 142.747 27.2861C142.869 27.2651 142.987 27.349 143.009 27.4726C143.029 27.5962 142.946 27.7134 142.822 27.7343C142.532 27.7835 142.141 27.9396 142.092 28.7319C142.069 29.0782 142.204 29.4144 142.47 29.6797C142.744 29.953 143.122 30.1171 143.535 30.1431C144.376 30.1966 145.097 29.6486 145.142 28.9228C145.15 28.7978 145.257 28.7023 145.383 28.7103C145.508 28.7182 145.603 28.826 145.595 28.951C145.537 29.885 144.676 30.6007 143.645 30.6007Z" fill="black"/>
<path d="M147.167 30.6007C146.137 30.6007 145.276 29.8851 145.218 28.9511C145.21 28.826 145.305 28.7183 145.43 28.7104C145.558 28.7024 145.663 28.7978 145.671 28.9229C145.716 29.6479 146.438 30.1966 147.278 30.1431C148.12 30.0904 148.767 29.4578 148.722 28.732C148.672 27.9397 148.281 27.7836 147.99 27.7344C147.867 27.7135 147.783 27.5964 147.804 27.4727C147.825 27.3491 147.943 27.266 148.066 27.287C148.537 27.3658 149.11 27.6759 149.175 28.7038C149.235 29.679 148.398 30.5284 147.307 30.5964C147.26 30.5993 147.213 30.6007 147.167 30.6007Z" fill="black"/>
<path d="M145.486 29.1635H145.37C145.058 29.1635 144.862 28.9344 144.796 28.7985C144.553 28.3344 144.316 28.3113 144.126 28.2925C144.06 28.286 143.999 28.2795 143.937 28.2585C143.673 28.1667 143.611 27.8913 143.615 27.7438C143.615 27.4958 143.806 27.3361 143.925 27.279C144.392 27.0296 145.377 27.0412 145.488 27.0441C145.613 27.0462 145.713 27.1496 145.711 27.2754C145.708 27.4004 145.604 27.5031 145.479 27.498C145.208 27.4937 144.44 27.5154 144.136 27.6809C144.132 27.6838 144.127 27.686 144.122 27.6882C144.122 27.6882 144.069 27.7185 144.069 27.751C144.069 27.7828 144.079 27.8212 144.088 27.8313C144.099 27.8335 144.14 27.8378 144.171 27.8407C144.406 27.8638 144.842 27.9072 145.201 28.5939C145.204 28.6011 145.263 28.7096 145.37 28.7096H145.486C145.611 28.7096 145.713 28.8108 145.713 28.9366C145.713 29.0623 145.611 29.1635 145.486 29.1635Z" fill="black"/>
<path d="M146.913 27.978C146.904 27.978 146.895 27.978 146.887 27.9765C146.762 27.9628 146.673 27.85 146.686 27.7257C146.688 27.7127 146.823 26.3934 146.086 25.0033C146.027 24.8919 146.07 24.7545 146.181 24.696C146.291 24.6374 146.428 24.6794 146.487 24.79C147.293 26.3102 147.145 27.7177 147.137 27.777C147.124 27.8927 147.026 27.978 146.913 27.978Z" fill="black"/>
<path d="M145.402 32.0551C144.078 32.0551 143.287 31.4602 143.287 30.4626C143.287 30.3375 143.388 30.2356 143.514 30.2356C143.639 30.2356 143.741 30.3375 143.741 30.4626C143.741 31.4537 144.781 31.6011 145.402 31.6011C146.16 31.6011 147.064 31.4038 147.064 30.4626C147.064 30.3375 147.165 30.2356 147.291 30.2356C147.416 30.2356 147.517 30.3375 147.517 30.4626C147.517 31.4747 146.746 32.0551 145.402 32.0551Z" fill="black"/>
<path d="M140.699 18.6322C140.578 18.6322 140.478 18.5375 140.473 18.4161C140.467 18.2903 140.564 18.184 140.689 18.179C141.025 18.1631 142.192 17.4272 142.913 16.9088C142.919 16.9045 142.926 16.9001 142.932 16.8965C143.62 16.5018 144.224 16.4057 144.727 16.6117C145.412 16.8929 145.626 17.6317 145.634 17.6628C145.668 17.7835 145.597 17.9093 145.477 17.9433C145.357 17.9765 145.232 17.9064 145.197 17.7864C145.194 17.7763 145.029 17.2247 144.551 17.0303C144.187 16.8835 143.722 16.9689 143.168 17.2848C142.837 17.5219 141.296 18.6062 140.709 18.6322C140.706 18.6322 140.703 18.6322 140.699 18.6322Z" fill="black"/>
<path d="M145.391 35.3018C145.344 35.3018 145.295 35.2866 145.255 35.2562C143.752 34.1263 142.527 33.0333 142.079 32.5981C142.05 33.1034 141.939 33.3687 141.749 33.3875C141.662 33.3954 141.513 33.3709 141.461 33.1092C141.398 32.7976 140.56 31.6084 139.245 30.5414C138.437 29.8857 137.975 29.1961 137.728 28.7283C137.54 29.0746 137.286 29.3074 137.27 29.3219C137.186 29.3985 137.058 29.4007 136.971 29.3269C136.884 29.2532 136.865 29.1267 136.927 29.0313C137.019 28.8845 136.922 28.0597 136.721 27.2666C136.72 27.2616 136.719 27.2565 136.718 27.2515C135.871 22.5273 138.409 20.5045 138.518 20.4207C138.617 20.3441 138.76 20.3621 138.836 20.4619C138.913 20.5609 138.895 20.7034 138.796 20.78C138.771 20.7988 136.372 22.7304 137.163 27.1633C137.234 27.443 137.346 27.9317 137.392 28.3814C137.433 28.2845 137.462 28.1804 137.472 28.0741C137.481 27.9657 137.566 27.8789 137.675 27.8681C137.782 27.8565 137.884 27.9245 137.915 28.0293C137.918 28.0402 138.271 29.1657 139.531 30.1886C140.513 30.986 141.25 31.8506 141.628 32.4448C141.631 32.3949 141.632 32.3487 141.632 32.3075C141.632 32.2807 141.637 32.2532 141.647 32.2279C141.684 32.1282 141.774 32.0125 141.915 31.988C141.986 31.9749 142.124 31.9778 142.259 32.1347C142.408 32.3089 143.773 33.5755 145.527 34.8933C145.628 34.9685 145.648 35.1109 145.573 35.2114C145.528 35.2707 145.46 35.3018 145.391 35.3018Z" fill="black"/>
<path d="M141.618 20.9289C141.568 20.9289 141.518 20.9123 141.476 20.8783C141.378 20.7995 141.363 20.6564 141.442 20.5588C142 19.8684 142.768 19.7499 143.265 19.7571C143.171 19.6877 143.05 19.619 142.896 19.567C142.805 19.5359 142.744 19.4513 142.742 19.3552C142.741 19.259 142.8 19.1723 142.89 19.139C142.956 19.1145 144.523 18.5455 145.547 19.5149C145.638 19.6009 145.642 19.7448 145.555 19.8359C145.469 19.927 145.326 19.9306 145.235 19.8446C144.746 19.3826 144.065 19.3711 143.593 19.4376C143.777 19.5879 143.88 19.739 143.927 19.8193C144.025 19.9089 144.012 20.0166 144.005 20.0521C143.995 20.0954 143.949 20.2378 143.736 20.2595C143.711 20.2617 143.685 20.2602 143.661 20.2537C143.614 20.2429 142.488 19.9877 141.795 20.8443C141.751 20.9 141.685 20.9289 141.618 20.9289Z" fill="black"/>
<path d="M149.181 20.9289C149.115 20.9289 149.049 20.9 149.004 20.8443C148.312 19.9877 147.187 20.2422 147.139 20.2537C147.114 20.2595 147.088 20.2617 147.064 20.2588C146.851 20.2378 146.804 20.0954 146.795 20.0521C146.788 20.0166 146.775 19.9082 146.872 19.8185C146.919 19.739 147.023 19.5872 147.207 19.4376C146.735 19.3703 146.053 19.3819 145.565 19.8446C145.474 19.9306 145.33 19.927 145.244 19.8359C145.158 19.7448 145.162 19.6009 145.253 19.5149C146.277 18.5455 147.843 19.1145 147.91 19.139C148 19.1723 148.059 19.259 148.057 19.3552C148.056 19.4506 147.994 19.5359 147.903 19.5662C147.75 19.619 147.628 19.6877 147.534 19.7564C148.031 19.7498 148.8 19.8684 149.357 20.5588C149.436 20.6564 149.421 20.7995 149.323 20.8776C149.282 20.9123 149.231 20.9289 149.181 20.9289Z" fill="black"/>
<path d="M148.317 25.3596C147.835 25.3596 147.443 24.9678 147.443 24.4863C147.443 24.0042 147.835 23.6124 148.317 23.6124H148.318C148.533 23.6124 148.739 23.6912 148.899 23.835C149.084 24.0006 149.191 24.2377 149.191 24.4863C149.191 24.9678 148.799 25.3596 148.317 25.3596ZM148.318 24.0663H148.317C148.086 24.0663 147.897 24.2543 147.897 24.4856C147.897 24.7177 148.086 24.9056 148.317 24.9056C148.548 24.9056 148.737 24.7177 148.737 24.4856C148.737 24.3664 148.685 24.2521 148.597 24.1733C148.52 24.1039 148.42 24.0663 148.318 24.0663Z" fill="black"/>
<path d="M147.534 25.6733C147.481 25.6733 147.429 25.6545 147.385 25.617C147.291 25.5353 147.281 25.3914 147.364 25.2967L147.742 24.8616C147.824 24.7669 147.967 24.7575 148.062 24.8399C148.156 24.9216 148.166 25.0654 148.084 25.1601L147.706 25.5953C147.661 25.6466 147.598 25.6733 147.534 25.6733Z" fill="black"/>
<path d="M148.776 24.2463C148.723 24.2463 148.67 24.2276 148.627 24.1907C148.533 24.1083 148.523 23.9644 148.605 23.8697L149.043 23.3666C149.125 23.2719 149.269 23.2617 149.363 23.3442C149.458 23.4266 149.467 23.5704 149.385 23.6644L148.948 24.1683C148.902 24.2196 148.839 24.2463 148.776 24.2463Z" fill="black"/>
<path d="M148.719 28.0351C148.708 28.0351 148.698 28.0344 148.688 28.0329C148.564 28.0163 148.476 27.9021 148.493 27.7777C148.503 27.709 148.609 27.0809 149.519 26.2777C150.342 25.5498 150.932 24.028 150.402 22.6415C150.358 22.5244 150.416 22.3928 150.533 22.348C150.65 22.3039 150.782 22.3617 150.827 22.4788C151.436 24.0736 150.781 25.768 149.819 26.6182C149.033 27.3129 148.944 27.8327 148.943 27.8377C148.928 27.952 148.831 28.0351 148.719 28.0351Z" fill="black"/>
<path d="M151.554 21.495C151.477 21.495 151.402 21.4567 151.359 21.3858C151.294 21.2788 151.328 21.1393 151.436 21.0742C152.138 20.6463 152.407 19.7781 152.048 19.0971C151.886 18.792 151.622 18.5759 151.303 18.4884C150.949 18.3908 150.556 18.4566 150.197 18.6756C149.971 18.813 149.777 19.0031 149.634 19.2236C149.566 19.3291 149.426 19.3595 149.321 19.2916C149.215 19.2236 149.185 19.0833 149.253 18.9778C149.432 18.6995 149.677 18.4609 149.962 18.2874C150.428 18.0033 150.947 17.9187 151.424 18.0503C151.864 18.1717 152.228 18.4674 152.449 18.8845C152.92 19.7773 152.579 20.9094 151.671 21.4617C151.635 21.4849 151.594 21.495 151.554 21.495Z" fill="black"/>
<path d="M150.913 20.84C150.853 20.84 150.794 20.8162 150.751 20.7706L149.919 19.9154C149.847 19.841 149.834 19.7267 149.888 19.6385C150.064 19.3486 150.377 19.1636 150.703 19.1571C150.946 19.152 151.164 19.2431 151.321 19.413C151.479 19.5843 151.552 19.8128 151.527 20.0564C151.494 20.3672 151.307 20.6492 151.026 20.8097C150.991 20.8299 150.952 20.84 150.913 20.84ZM150.386 19.7441L150.934 20.3087C151.013 20.2248 151.064 20.1193 151.075 20.0094C151.087 19.8973 151.056 19.7947 150.987 19.7202C150.92 19.6472 150.819 19.6067 150.712 19.611C150.596 19.6132 150.479 19.6624 150.386 19.7441Z" fill="black"/>
<path d="M150.133 18.6322C150.129 18.6322 150.126 18.6322 150.123 18.6322C149.537 18.6062 147.994 17.5219 147.664 17.2848C147.11 16.9689 146.645 16.8835 146.282 17.0303C145.801 17.2254 145.636 17.7806 145.635 17.7864C145.6 17.9064 145.475 17.9766 145.355 17.9419C145.234 17.9079 145.164 17.7835 145.198 17.6628C145.206 17.6317 145.42 16.8929 146.106 16.6117C146.608 16.4057 147.212 16.5018 147.9 16.8965C147.906 16.9001 147.914 16.9045 147.919 16.9088C148.641 17.4272 149.807 18.1631 150.143 18.179C150.268 18.1848 150.366 18.2903 150.36 18.4161C150.354 18.5375 150.254 18.6322 150.133 18.6322Z" fill="black"/>
<path d="M145.441 35.3018C145.373 35.3018 145.305 35.2707 145.26 35.2114C145.185 35.1109 145.205 34.9685 145.305 34.8933C147.058 33.5755 148.424 32.3089 148.573 32.1347C148.708 31.9778 148.846 31.9749 148.917 31.988C149.058 32.0125 149.148 32.1282 149.185 32.2279C149.195 32.2532 149.2 32.2807 149.2 32.3075C149.2 32.3487 149.201 32.3949 149.204 32.4448C149.583 31.8506 150.319 30.986 151.301 30.1886C152.569 29.1599 152.914 28.0402 152.917 28.0293C152.948 27.9245 153.05 27.8565 153.157 27.8681C153.266 27.8789 153.351 27.9657 153.36 28.0741C153.37 28.1804 153.399 28.2838 153.441 28.3807C153.486 27.931 153.598 27.4423 153.669 27.1633C154.464 22.7131 152.062 20.7988 152.037 20.78C151.938 20.7034 151.92 20.5609 151.996 20.4619C152.072 20.3621 152.215 20.3441 152.315 20.4207C152.423 20.5045 154.961 22.5272 154.115 27.2507C154.113 27.2565 154.113 27.2616 154.111 27.2666C153.91 28.0597 153.814 28.8838 153.906 29.0313C153.966 29.1274 153.946 29.2539 153.86 29.3269C153.772 29.3992 153.646 29.3978 153.563 29.3219C153.546 29.3074 153.292 29.0746 153.104 28.7283C152.857 29.1961 152.395 29.8857 151.588 30.5414C150.273 31.6084 149.434 32.7969 149.372 33.1092C149.319 33.3709 149.17 33.3954 149.084 33.3875C148.893 33.3687 148.782 33.1034 148.753 32.5988C148.305 33.0333 147.081 34.127 145.578 35.2562C145.537 35.2866 145.489 35.3018 145.441 35.3018Z" fill="black"/>
<path d="M142.58 22.8547C142.185 22.8547 141.863 22.533 141.863 22.1376C141.863 21.7422 142.185 21.4205 142.58 21.4205C142.976 21.4205 143.297 21.7422 143.297 22.1376C143.297 22.533 142.976 22.8547 142.58 22.8547ZM142.58 21.8116C142.4 21.8116 142.254 21.9583 142.254 22.1376C142.254 22.3176 142.4 22.4637 142.58 22.4637C142.76 22.4637 142.906 22.3176 142.906 22.1376C142.906 21.9583 142.76 21.8116 142.58 21.8116Z" fill="black"/>
<path d="M142.926 28.3265C142.837 28.3265 142.757 28.3128 142.694 28.294C142.345 28.2202 142.096 28.0677 141.953 27.8414C141.774 27.5587 141.837 27.2746 141.845 27.2428C141.852 27.2038 142.071 26.058 142.112 25.87C142.12 25.8346 142.115 25.8144 142.111 25.8079C142.105 25.8035 142.1 25.7992 142.095 25.7941C141.031 24.8009 140.489 23.3999 140.607 21.9504C140.703 20.7851 141.223 19.7007 142.074 18.8983C142.152 18.8246 142.276 18.8282 142.35 18.9063C142.424 18.9851 142.421 19.1087 142.342 19.1831C141.562 19.919 141.084 20.9131 140.997 21.9822C140.888 23.308 141.383 24.589 142.353 25.4999C142.437 25.5649 142.546 25.7189 142.494 25.9539C142.455 26.1368 142.228 27.3144 142.226 27.3267C142.223 27.3397 142.192 27.4922 142.287 27.6375C142.373 27.7698 142.54 27.8631 142.783 27.913C142.79 27.9144 142.796 27.9166 142.804 27.9187C142.86 27.9354 143.158 28.0062 143.317 27.6773L143.493 27.2761C143.536 27.1771 143.652 27.1322 143.751 27.1756C143.85 27.219 143.895 27.3347 143.851 27.4337L143.671 27.8414C143.487 28.2224 143.173 28.3265 142.926 28.3265Z" fill="black"/>
<path d="M141.928 27.6483C141.912 27.6483 141.897 27.6461 141.88 27.6418C138.825 26.8632 137.502 23.6962 136.866 22.1745C136.763 21.9287 136.675 21.7161 136.604 21.573C136.134 20.6347 136.669 19.8742 137.017 19.6031C140.521 16.6934 142.231 17.412 142.302 17.4438C142.313 17.4489 142.324 17.4547 142.334 17.4619C142.344 17.4691 142.368 17.4858 142.405 17.4561C143.862 16.2872 145.383 16.5221 145.448 16.5322C145.554 16.5503 145.626 16.6508 145.609 16.7571C145.592 16.864 145.491 16.9363 145.384 16.9183C145.37 16.9161 143.966 16.7057 142.654 17.7583C142.573 17.8306 142.353 17.9361 142.131 17.7966C141.991 17.7489 140.411 17.2927 137.262 19.9082C137.227 19.9357 136.512 20.5154 136.954 21.3981C137.031 21.5535 137.122 21.7711 137.227 22.0234C137.838 23.4866 139.11 26.5322 141.977 27.2623C142.081 27.289 142.144 27.396 142.118 27.5008C142.095 27.589 142.016 27.6483 141.928 27.6483Z" fill="black"/>
<path d="M139.364 33.1316C139.294 33.1316 139.229 33.0933 139.194 33.0304C139.153 32.9574 139.163 32.8663 139.22 32.8041C141.548 30.2421 141.932 27.7315 141.936 27.7062C141.951 27.5992 142.051 27.5254 142.157 27.5406C142.264 27.5558 142.338 27.6549 142.323 27.7618C142.309 27.858 141.996 29.9074 140.206 32.2359C140.901 31.6713 141.924 30.4995 142.955 28.0929C142.997 27.9932 143.112 27.9476 143.211 27.9896C143.31 28.0322 143.356 28.1472 143.314 28.2469C141.401 32.7174 139.48 33.1135 139.4 33.128C139.388 33.1301 139.376 33.1316 139.364 33.1316Z" fill="black"/>
<path d="M143.819 34.1039C143.777 34.1039 143.734 34.0901 143.699 34.0627C143.614 33.9962 143.598 33.8733 143.664 33.788C143.88 33.5104 143.927 32.9646 143.927 32.7773C144.182 28.6965 143.257 26.4866 143.248 26.4642C143.205 26.3652 143.252 26.2502 143.351 26.2075C143.45 26.1642 143.564 26.2104 143.607 26.3095C143.647 26.402 144.579 28.6177 144.318 32.7896C144.319 32.8106 144.315 33.5884 143.973 34.0279C143.934 34.0778 143.877 34.1039 143.819 34.1039Z" fill="black"/>
<path d="M146.338 35.3018C145.912 35.3018 145.55 35.0314 145.415 34.6555C145.279 35.0343 144.917 35.3018 144.494 35.3018C143.954 35.3018 143.515 34.8666 143.515 34.3316C143.515 34.1336 143.554 33.9716 143.635 33.8364C143.69 33.7432 143.81 33.7136 143.903 33.7685C143.996 33.8242 144.026 33.9441 143.971 34.0367C143.927 34.1097 143.906 34.2066 143.906 34.3316C143.906 34.6512 144.169 34.9107 144.494 34.9107C144.818 34.9107 145.082 34.6512 145.082 34.3316C145.079 34.2832 145.079 34.0822 145.196 33.9586C145.254 33.8979 145.331 33.8646 145.415 33.8646C145.456 33.8639 145.539 33.8733 145.617 33.9456C145.705 34.0273 145.75 34.1574 145.75 34.3316C145.75 34.6512 146.014 34.9107 146.338 34.9107C146.663 34.9107 146.926 34.6512 146.926 34.3316C146.926 34.2066 146.905 34.1097 146.861 34.0367C146.806 33.9441 146.837 33.8242 146.929 33.7685C147.022 33.7136 147.142 33.7439 147.197 33.8364C147.278 33.9716 147.317 34.1336 147.317 34.3316C147.317 34.8666 146.878 35.3018 146.338 35.3018Z" fill="black"/>
<path d="M148.904 27.6483C148.816 27.6483 148.737 27.589 148.714 27.5008C148.688 27.396 148.75 27.2897 148.855 27.263C151.722 26.5321 152.993 23.4873 153.605 22.0234C153.71 21.7711 153.801 21.5535 153.878 21.3981C154.323 20.5082 153.605 19.9364 153.575 19.9118C150.431 17.3014 148.849 17.746 148.7 17.7973C148.478 17.9354 148.258 17.8299 148.171 17.7518C146.86 16.7007 145.462 16.9161 145.448 16.9183C145.342 16.9364 145.24 16.8641 145.223 16.7571C145.206 16.6508 145.277 16.5503 145.384 16.5323C145.449 16.5221 146.97 16.2872 148.423 17.4532C148.464 17.4858 148.488 17.4692 148.498 17.4619C148.508 17.4547 148.519 17.4489 148.53 17.4438C148.602 17.4113 150.311 16.6935 153.82 19.6068C154.163 19.8742 154.697 20.634 154.228 21.573C154.157 21.7162 154.068 21.9287 153.966 22.1738C153.33 23.6962 152.007 26.8632 148.952 27.6418C148.935 27.6461 148.919 27.6483 148.904 27.6483Z" fill="black"/>
<path d="M144.482 26.6674C144.422 26.6674 144.362 26.6392 144.324 26.5871C144.261 26.4996 144.278 26.3789 144.365 26.3153C144.396 26.2922 145.138 25.7602 146.421 26.2611C146.522 26.3001 146.571 26.4136 146.532 26.5148C146.493 26.6153 146.38 26.6652 146.279 26.6254C145.209 26.2076 144.621 26.6131 144.596 26.6312C144.562 26.655 144.522 26.6674 144.482 26.6674Z" fill="black"/>
<path d="M144.752 28.2418C144.692 28.2418 144.633 28.2144 144.594 28.1623C144.53 28.0756 144.548 27.9526 144.635 27.8883C144.658 27.8717 145.211 27.4755 146.151 27.8428C146.251 27.8818 146.301 27.9953 146.262 28.0965C146.223 28.197 146.11 28.2469 146.009 28.2071C145.279 27.9223 144.871 28.1999 144.867 28.2035C144.833 28.2288 144.792 28.2418 144.752 28.2418Z" fill="black"/>
<path d="M144.789 29.7311C144.729 29.7311 144.669 29.7029 144.63 29.6501C144.568 29.5634 144.586 29.4433 144.672 29.3797C144.694 29.3631 145.22 28.9857 146.115 29.3349C146.215 29.3739 146.265 29.4874 146.226 29.5886C146.186 29.6891 146.074 29.739 145.972 29.6993C145.29 29.4332 144.918 29.6848 144.902 29.6956C144.868 29.7195 144.828 29.7311 144.789 29.7311Z" fill="black"/>
<path d="M144.942 31.2911C144.882 31.2911 144.823 31.2636 144.784 31.2115C144.72 31.1248 144.738 31.0026 144.825 30.9382C144.843 30.9252 145.261 30.6252 145.962 30.8985C146.062 30.9375 146.112 31.051 146.073 31.1515C146.033 31.252 145.92 31.3019 145.819 31.2629C145.326 31.0699 145.06 31.2506 145.058 31.2527C145.023 31.2788 144.982 31.2911 144.942 31.2911Z" fill="black"/>
<path d="M144.942 32.7513C144.882 32.7513 144.823 32.7238 144.784 32.6718C144.72 32.585 144.738 32.4629 144.825 32.3986C144.843 32.3855 145.261 32.0856 145.962 32.3588C146.062 32.3978 146.112 32.5113 146.073 32.6118C146.033 32.713 145.92 32.7621 145.819 32.7231C145.326 32.5301 145.06 32.7108 145.058 32.713C145.023 32.739 144.982 32.7513 144.942 32.7513Z" fill="black"/>
<path d="M145.416 10H144.693V41.8079H145.416V10Z" fill="white"/>
<defs>
<linearGradient id="paint0_linear" x1="243.347" y1="65.8106" x2="243.347" y2="-13.9145" gradientUnits="userSpaceOnUse">
<stop offset="0.322" stop-color="#A163F5"/>
<stop offset="0.466" stop-color="#B074EE"/>
<stop offset="0.752" stop-color="#D8A1DD"/>
<stop offset="0.898" stop-color="#EFBAD3"/>
</linearGradient>
<linearGradient id="paint1_linear" x1="26.8987" y1="18.6748" x2="26.8987" y2="33.1331" gradientUnits="userSpaceOnUse">
<stop stop-color="#A01ECD"/>
<stop offset="1" stop-color="#435CEA" stop-opacity="0.77"/>
</linearGradient>
<linearGradient id="paint2_linear" x1="66.4045" y1="20.8436" x2="66.4045" y2="30.9643" gradientUnits="userSpaceOnUse">
<stop stop-color="#A01ECD"/>
<stop offset="1" stop-color="#435CEA" stop-opacity="0.77"/>
</linearGradient>
<linearGradient id="paint3_linear" x1="105.669" y1="18.6749" x2="105.669" y2="33.133" gradientUnits="userSpaceOnUse">
<stop stop-color="#A01ECD"/>
<stop offset="1" stop-color="#435CEA" stop-opacity="0.77"/>
</linearGradient>
<linearGradient id="paint4_linear" x1="102.658" y1="21.0844" x2="102.658" y2="24.0967" gradientUnits="userSpaceOnUse">
<stop stop-color="#A01ECD"/>
<stop offset="1" stop-color="#435CEA" stop-opacity="0.77"/>
</linearGradient>
<linearGradient id="paint5_linear" x1="102.658" y1="25.9039" x2="102.658" y2="26.5061" gradientUnits="userSpaceOnUse">
<stop stop-color="#A01ECD"/>
<stop offset="1" stop-color="#435CEA" stop-opacity="0.77"/>
</linearGradient>
<linearGradient id="paint6_linear" x1="102.658" y1="27.7112" x2="102.658" y2="28.3134" gradientUnits="userSpaceOnUse">
<stop stop-color="#A01ECD"/>
<stop offset="1" stop-color="#435CEA" stop-opacity="0.77"/>
</linearGradient>
<linearGradient id="paint7_linear" x1="145.416" y1="15.7833" x2="145.416" y2="35.3018" gradientUnits="userSpaceOnUse">
<stop stop-color="#A01ECD"/>
<stop offset="1" stop-color="#435CEA" stop-opacity="0.77"/>
</linearGradient>
</defs>
</svg>
