<svg width="270" height="93" viewBox="0 0 270 93" fill="none" xmlns="http://www.w3.org/2000/svg">
<g filter="url(#filter0_d)">
<path d="M39.2 24.5431C39.2 16.5581 32.729 10.085 24.7467 10.085C16.7643 10.085 10.2933 16.5581 10.2933 24.5431C10.2933 32.5281 16.7643 39.0012 24.7467 39.0012C32.729 39.0012 39.2 32.5281 39.2 24.5431Z" fill="white" fill-opacity="0.7"/>
<path d="M26.8002 21.778L24.042 24.5431L26.8002 27.3082L25.9511 28.1576L22.3378 24.5431L25.9511 20.9286L26.8002 21.778Z" fill="#723325"/>
</g>
<path d="M17.98 59V66H8.99V59H10.27V64.9H12.85V59H14.13V64.9H16.7V59H17.98ZM22.1868 66.07C21.6468 66.07 21.1601 65.9533 20.7268 65.72C20.2935 65.4867 19.9535 65.1633 19.7068 64.75C19.4668 64.33 19.3468 63.8567 19.3468 63.33C19.3468 62.8033 19.4668 62.3333 19.7068 61.92C19.9535 61.5067 20.2935 61.1833 20.7268 60.95C21.1601 60.7167 21.6468 60.6 22.1868 60.6C22.7335 60.6 23.2235 60.7167 23.6568 60.95C24.0901 61.1833 24.4268 61.5067 24.6668 61.92C24.9135 62.3333 25.0368 62.8033 25.0368 63.33C25.0368 63.8567 24.9135 64.33 24.6668 64.75C24.4268 65.1633 24.0901 65.4867 23.6568 65.72C23.2235 65.9533 22.7335 66.07 22.1868 66.07ZM22.1868 65C22.6468 65 23.0268 64.8467 23.3268 64.54C23.6268 64.2333 23.7768 63.83 23.7768 63.33C23.7768 62.83 23.6268 62.4267 23.3268 62.12C23.0268 61.8133 22.6468 61.66 22.1868 61.66C21.7268 61.66 21.3468 61.8133 21.0468 62.12C20.7535 62.4267 20.6068 62.83 20.6068 63.33C20.6068 63.83 20.7535 64.2333 21.0468 64.54C21.3468 64.8467 21.7268 65 22.1868 65ZM28.4916 63.86H27.5216V66H26.2716V60.66H27.5216V62.82H28.5216L30.1016 60.66H31.4416L29.5016 63.23L31.5716 66H30.1016L28.4916 63.86ZM34.6575 66.07C34.1175 66.07 33.6308 65.9533 33.1975 65.72C32.7642 65.4867 32.4242 65.1633 32.1775 64.75C31.9375 64.33 31.8175 63.8567 31.8175 63.33C31.8175 62.8033 31.9375 62.3333 32.1775 61.92C32.4242 61.5067 32.7642 61.1833 33.1975 60.95C33.6308 60.7167 34.1175 60.6 34.6575 60.6C35.2042 60.6 35.6942 60.7167 36.1275 60.95C36.5608 61.1833 36.8975 61.5067 37.1375 61.92C37.3842 62.3333 37.5075 62.8033 37.5075 63.33C37.5075 63.8567 37.3842 64.33 37.1375 64.75C36.8975 65.1633 36.5608 65.4867 36.1275 65.72C35.6942 65.9533 35.2042 66.07 34.6575 66.07ZM34.6575 65C35.1175 65 35.4975 64.8467 35.7975 64.54C36.0975 64.2333 36.2475 63.83 36.2475 63.33C36.2475 62.83 36.0975 62.4267 35.7975 62.12C35.4975 61.8133 35.1175 61.66 34.6575 61.66C34.1975 61.66 33.8175 61.8133 33.5175 62.12C33.2242 62.4267 33.0775 62.83 33.0775 63.33C33.0775 63.83 33.2242 64.2333 33.5175 64.54C33.8175 64.8467 34.1975 65 34.6575 65ZM43.5238 60.66V66H42.2738V61.72H40.2738L40.2238 62.78C40.1904 63.4867 40.1238 64.08 40.0238 64.56C39.9304 65.0333 39.7671 65.41 39.5338 65.69C39.3071 65.9633 38.9938 66.1 38.5938 66.1C38.4071 66.1 38.1771 66.0633 37.9038 65.99L37.9638 64.94C38.0571 64.96 38.1371 64.97 38.2038 64.97C38.4571 64.97 38.6471 64.87 38.7738 64.67C38.9004 64.4633 38.9804 64.22 39.0138 63.94C39.0538 63.6533 39.0871 63.2467 39.1138 62.72L39.2038 60.66H43.5238ZM47.1972 60.6C47.9839 60.6 48.5839 60.79 48.9972 61.17C49.4172 61.5433 49.6272 62.11 49.6272 62.87V66H48.4472V65.35C48.2939 65.5833 48.0739 65.7633 47.7872 65.89C47.5072 66.01 47.1672 66.07 46.7672 66.07C46.3672 66.07 46.0172 66.0033 45.7172 65.87C45.4172 65.73 45.1839 65.54 45.0172 65.3C44.8572 65.0533 44.7772 64.7767 44.7772 64.47C44.7772 63.99 44.9539 63.6067 45.3072 63.32C45.6672 63.0267 46.2305 62.88 46.9972 62.88H48.3772V62.8C48.3772 62.4267 48.2639 62.14 48.0372 61.94C47.8172 61.74 47.4872 61.64 47.0472 61.64C46.7472 61.64 46.4505 61.6867 46.1572 61.78C45.8705 61.8733 45.6272 62.0033 45.4272 62.17L44.9372 61.26C45.2172 61.0467 45.5539 60.8833 45.9472 60.77C46.3405 60.6567 46.7572 60.6 47.1972 60.6ZM47.0272 65.16C47.3405 65.16 47.6172 65.09 47.8572 64.95C48.1039 64.8033 48.2772 64.5967 48.3772 64.33V63.71H47.0872C46.3672 63.71 46.0072 63.9467 46.0072 64.42C46.0072 64.6467 46.0972 64.8267 46.2772 64.96C46.4572 65.0933 46.7072 65.16 47.0272 65.16ZM56.874 64.94V67.19H55.704V66H51.584V67.19H50.424V64.94H50.674C51.014 64.9267 51.244 64.71 51.364 64.29C51.4907 63.8633 51.574 63.2633 51.614 62.49L51.684 60.66H56.084V64.94H56.874ZM52.754 62.58C52.7273 63.1933 52.6773 63.6933 52.604 64.08C52.5307 64.4667 52.3973 64.7533 52.204 64.94H54.834V61.72H52.784L52.754 62.58ZM57.9904 60.66H59.2404V62.83H61.9304V60.66H63.1804V66H61.9304V63.89H59.2404V66H57.9904V60.66ZM67.4556 62.42C68.1356 62.42 68.6556 62.5733 69.0156 62.88C69.3756 63.1867 69.5556 63.62 69.5556 64.18C69.5556 64.7667 69.3556 65.22 68.9556 65.54C68.5623 65.86 68.0023 66.0167 67.2756 66.01L64.8556 66V60.66H66.1056V62.41L67.4556 62.42ZM70.2456 60.66H71.4956V66H70.2456V60.66ZM67.1656 65.09C67.5323 65.0967 67.8123 65.02 68.0056 64.86C68.199 64.7 68.2956 64.4667 68.2956 64.16C68.2956 63.86 68.2023 63.64 68.0156 63.5C67.829 63.36 67.5456 63.2867 67.1656 63.28L66.1056 63.27V65.08L67.1656 65.09ZM73.1759 60.66H74.4259V64.18L77.3759 60.66H78.5159V66H77.2659V62.48L74.3259 66H73.1759V60.66ZM75.7659 60.03C75.2259 60.03 74.8126 59.9067 74.5259 59.66C74.2459 59.4067 74.1026 59.04 74.0959 58.56H74.9259C74.9326 58.8 75.0059 58.99 75.1459 59.13C75.2926 59.27 75.4959 59.34 75.7559 59.34C76.0093 59.34 76.2093 59.27 76.3559 59.13C76.5093 58.99 76.5893 58.8 76.5959 58.56H77.4459C77.4393 59.04 77.2926 59.4067 77.0059 59.66C76.7193 59.9067 76.3059 60.03 75.7659 60.03ZM88.0811 60.66V66H86.8411V61.72H84.2111V66H82.9611V60.66H88.0811ZM91.7577 60.6C92.5444 60.6 93.1444 60.79 93.5577 61.17C93.9777 61.5433 94.1877 62.11 94.1877 62.87V66H93.0077V65.35C92.8544 65.5833 92.6344 65.7633 92.3477 65.89C92.0677 66.01 91.7277 66.07 91.3277 66.07C90.9277 66.07 90.5777 66.0033 90.2777 65.87C89.9777 65.73 89.7444 65.54 89.5777 65.3C89.4177 65.0533 89.3377 64.7767 89.3377 64.47C89.3377 63.99 89.5144 63.6067 89.8677 63.32C90.2277 63.0267 90.7911 62.88 91.5577 62.88H92.9377V62.8C92.9377 62.4267 92.8244 62.14 92.5977 61.94C92.3777 61.74 92.0477 61.64 91.6077 61.64C91.3077 61.64 91.0111 61.6867 90.7177 61.78C90.4311 61.8733 90.1877 62.0033 89.9877 62.17L89.4977 61.26C89.7777 61.0467 90.1144 60.8833 90.5077 60.77C90.9011 60.6567 91.3177 60.6 91.7577 60.6ZM91.5877 65.16C91.9011 65.16 92.1777 65.09 92.4177 64.95C92.6644 64.8033 92.8377 64.5967 92.9377 64.33V63.71H91.6477C90.9277 63.71 90.5677 63.9467 90.5677 64.42C90.5677 64.6467 90.6577 64.8267 90.8377 64.96C91.0177 65.0933 91.2677 65.16 91.5877 65.16ZM95.7345 60.66H96.9845V62.83H99.6745V60.66H100.925V66H99.6745V63.89H96.9845V66H95.7345V60.66ZM104.82 63.86H103.85V66H102.6V60.66H103.85V62.82H104.85L106.43 60.66H107.77L105.83 63.23L107.9 66H106.43L104.82 63.86ZM113.606 63.36C113.606 63.4467 113.599 63.57 113.586 63.73H109.396C109.469 64.1233 109.659 64.4367 109.966 64.67C110.279 64.8967 110.666 65.01 111.126 65.01C111.712 65.01 112.196 64.8167 112.576 64.43L113.246 65.2C113.006 65.4867 112.702 65.7033 112.336 65.85C111.969 65.9967 111.556 66.07 111.096 66.07C110.509 66.07 109.992 65.9533 109.546 65.72C109.099 65.4867 108.752 65.1633 108.506 64.75C108.266 64.33 108.146 63.8567 108.146 63.33C108.146 62.81 108.262 62.3433 108.496 61.93C108.736 61.51 109.066 61.1833 109.486 60.95C109.906 60.7167 110.379 60.6 110.906 60.6C111.426 60.6 111.889 60.7167 112.296 60.95C112.709 61.1767 113.029 61.5 113.256 61.92C113.489 62.3333 113.606 62.8133 113.606 63.36ZM110.906 61.6C110.506 61.6 110.166 61.72 109.886 61.96C109.612 62.1933 109.446 62.5067 109.386 62.9H112.416C112.362 62.5133 112.199 62.2 111.926 61.96C111.652 61.72 111.312 61.6 110.906 61.6ZM114.973 60.66H116.223V64.18L119.173 60.66H120.313V66H119.063V62.48L116.123 66H114.973V60.66ZM117.563 60.03C117.023 60.03 116.609 59.9067 116.323 59.66C116.043 59.4067 115.899 59.04 115.893 58.56H116.723C116.729 58.8 116.803 58.99 116.943 59.13C117.089 59.27 117.293 59.34 117.553 59.34C117.806 59.34 118.006 59.27 118.153 59.13C118.306 58.99 118.386 58.8 118.393 58.56H119.243C119.236 59.04 119.089 59.4067 118.803 59.66C118.516 59.9067 118.103 60.03 117.563 60.03ZM124.214 63.86H123.244V66H121.994V60.66H123.244V62.82H124.244L125.824 60.66H127.164L125.224 63.23L127.294 66H125.824L124.214 63.86Z" fill="white"/>
<path d="M16.84 85.089H15.358V87H13.304V85.089H8.403V83.672L12.693 77.9H14.903L10.925 83.373H13.369V81.67H15.358V83.373H16.84V85.089ZM20.5645 81.319C21.8472 81.319 22.7918 81.5747 23.3985 82.086C24.0138 82.5973 24.3215 83.282 24.3215 84.14C24.3215 84.6947 24.1828 85.2017 23.9055 85.661C23.6282 86.1117 23.2035 86.4757 22.6315 86.753C22.0682 87.0217 21.3705 87.156 20.5385 87.156C19.8972 87.156 19.2645 87.0737 18.6405 86.909C18.0252 86.7357 17.5008 86.493 17.0675 86.181L17.8995 84.569C18.2462 84.829 18.6448 85.0327 19.0955 85.18C19.5462 85.3187 20.0098 85.388 20.4865 85.388C21.0152 85.388 21.4312 85.284 21.7345 85.076C22.0378 84.868 22.1895 84.5777 22.1895 84.205C22.1895 83.815 22.0292 83.5203 21.7085 83.321C21.3965 83.1217 20.8505 83.022 20.0705 83.022H17.7435L18.2115 77.9H23.7625V79.59H19.9665L19.8235 81.319H20.5645ZM29.0759 87.156C28.3219 87.156 27.6503 86.9697 27.0609 86.597C26.4716 86.2243 26.0079 85.687 25.6699 84.985C25.3406 84.2743 25.1759 83.4293 25.1759 82.45C25.1759 81.4707 25.3406 80.63 25.6699 79.928C26.0079 79.2173 26.4716 78.6757 27.0609 78.303C27.6503 77.9303 28.3219 77.744 29.0759 77.744C29.8299 77.744 30.5016 77.9303 31.0909 78.303C31.6803 78.6757 32.1396 79.2173 32.4689 79.928C32.8069 80.63 32.9759 81.4707 32.9759 82.45C32.9759 83.4293 32.8069 84.2743 32.4689 84.985C32.1396 85.687 31.6803 86.2243 31.0909 86.597C30.5016 86.9697 29.8299 87.156 29.0759 87.156ZM29.0759 85.375C29.6306 85.375 30.0639 85.1367 30.3759 84.66C30.6966 84.1833 30.8569 83.4467 30.8569 82.45C30.8569 81.4533 30.6966 80.7167 30.3759 80.24C30.0639 79.7633 29.6306 79.525 29.0759 79.525C28.5299 79.525 28.0966 79.7633 27.7759 80.24C27.4639 80.7167 27.3079 81.4533 27.3079 82.45C27.3079 83.4467 27.4639 84.1833 27.7759 84.66C28.0966 85.1367 28.5299 85.375 29.0759 85.375ZM40.9438 84.023V84.751H43.7518V85.83H40.9438V87H38.8248V85.83H37.5638V84.751H38.8248V77.9H42.7638C44.0032 77.9 44.9695 78.16 45.6628 78.68C46.3648 79.2 46.7158 79.9627 46.7158 80.968C46.7158 81.9647 46.3648 82.723 45.6628 83.243C44.9695 83.763 44.0032 84.023 42.7638 84.023H40.9438ZM44.5838 80.981C44.5838 80.539 44.4235 80.201 44.1028 79.967C43.7908 79.733 43.3402 79.616 42.7508 79.616H40.9438V82.372H42.7508C43.3402 82.372 43.7908 82.255 44.1028 82.021C44.4235 81.7783 44.5838 81.4317 44.5838 80.981Z" fill="white"/>
<path d="M244 74.5C244 68.1487 249.149 63 255.5 63C261.851 63 267 68.1487 267 74.5C267 80.8513 261.851 86 255.5 86C249.149 86 244 80.8513 244 74.5Z" fill="#F6F4F5" fill-opacity="0.81"/>
<path d="M257.119 77.5421L257.012 77.9789C256.691 78.1055 256.435 78.2018 256.245 78.268C256.054 78.3344 255.832 78.3675 255.579 78.3675C255.191 78.3675 254.89 78.2724 254.675 78.0836C254.459 77.8939 254.352 77.6537 254.352 77.3622C254.352 77.2494 254.359 77.1333 254.376 77.0151C254.392 76.8967 254.418 76.7633 254.454 76.6143L254.854 75.1961C254.89 75.0603 254.92 74.9316 254.944 74.8099C254.969 74.689 254.981 74.5778 254.981 74.4776C254.981 74.2965 254.944 74.1698 254.868 74.0986C254.794 74.0276 254.652 73.9915 254.44 73.9915C254.337 73.9915 254.23 74.0081 254.122 74.0402C254.013 74.0724 253.92 74.1035 253.841 74.1325L253.949 73.6953C254.211 73.5884 254.462 73.4968 254.702 73.4209C254.942 73.3448 255.168 73.3066 255.383 73.3066C255.768 73.3066 256.065 73.3998 256.275 73.5861C256.483 73.7726 256.588 74.0143 256.588 74.3121C256.588 74.3738 256.581 74.4823 256.566 74.6376C256.551 74.7931 256.525 74.9356 256.486 75.0652L256.087 76.4777C256.054 76.5912 256.024 76.7209 255.999 76.8668C255.973 77.0118 255.96 77.1226 255.96 77.1969C255.96 77.3844 256.002 77.5125 256.086 77.5806C256.17 77.6487 256.316 77.6825 256.522 77.6825C256.619 77.6825 256.729 77.6653 256.852 77.6315C256.974 77.5977 257.064 77.568 257.119 77.5421ZM257.22 71.612C257.22 71.8581 257.127 72.0683 256.941 72.2411C256.755 72.4145 256.531 72.5013 256.269 72.5013C256.006 72.5013 255.782 72.4145 255.594 72.2411C255.406 72.0682 255.312 71.8581 255.312 71.612C255.312 71.3663 255.406 71.1558 255.594 70.9809C255.781 70.8061 256.006 70.7188 256.269 70.7188C256.531 70.7188 256.755 70.8063 256.941 70.9809C257.127 71.1558 257.22 71.3664 257.22 71.612Z" fill="url(#paint0_linear)"/>
<path d="M235.333 30.6667C235.333 21.0938 243.094 13.3334 252.667 13.3334C262.24 13.3334 270 21.0938 270 30.6667C270 40.2397 262.24 48.0001 252.667 48.0001C243.094 48.0001 235.333 40.2397 235.333 30.6667Z" fill="url(#paint1_linear)"/>
<path d="M244 25.3617L247.146 26.2691L249.178 35.4728H256.454L259.6 30.4173" stroke="white"/>
<path d="M250.5 27.9579L253.533 30.9912L257.867 27.0912" stroke="white"/>
<defs>
<filter id="filter0_d" x="0.293335" y="0.0849609" width="48.9067" height="48.9163" filterUnits="userSpaceOnUse" color-interpolation-filters="sRGB">
<feFlood flood-opacity="0" result="BackgroundImageFix"/>
<feColorMatrix in="SourceAlpha" type="matrix" values="0 0 0 0 0 0 0 0 0 0 0 0 0 0 0 0 0 0 127 0"/>
<feOffset/>
<feGaussianBlur stdDeviation="5"/>
<feColorMatrix type="matrix" values="0 0 0 0 0 0 0 0 0 0 0 0 0 0 0 0 0 0 0.2 0"/>
<feBlend mode="normal" in2="BackgroundImageFix" result="effect1_dropShadow"/>
<feBlend mode="normal" in="SourceGraphic" in2="effect1_dropShadow" result="shape"/>
</filter>
<linearGradient id="paint0_linear" x1="255.531" y1="70.7188" x2="255.531" y2="78.3675" gradientUnits="userSpaceOnUse">
<stop stop-color="#A01ECD"/>
<stop offset="1" stop-color="#435CEA" stop-opacity="0.77"/>
</linearGradient>
<linearGradient id="paint1_linear" x1="252.667" y1="13.3334" x2="252.667" y2="48.0001" gradientUnits="userSpaceOnUse">
<stop stop-color="#A01ECD"/>
<stop offset="1" stop-color="#435CEA" stop-opacity="0.77"/>
</linearGradient>
</defs>
</svg>
