<svg width="310" height="598" viewBox="0 0 310 598" fill="none" xmlns="http://www.w3.org/2000/svg">
<rect width="310" height="598" fill="url(#paint0_linear)"/>
<g filter="url(#filter0_d)">
<path d="M54.2 45.5431C54.2 37.5581 47.729 31.085 39.7467 31.085C31.7643 31.085 25.2933 37.5581 25.2933 45.5431C25.2933 53.5281 31.7643 60.0012 39.7467 60.0012C47.729 60.0012 54.2 53.5281 54.2 45.5431Z" fill="white" fill-opacity="0.7"/>
<path d="M41.8002 42.778L39.042 45.5431L41.8002 48.3082L40.9511 49.1576L37.3378 45.5431L40.9511 41.9286L41.8002 42.778Z" fill="#723325"/>
</g>
<path d="M32.98 80V87H23.99V80H25.27V85.9H27.85V80H29.13V85.9H31.7V80H32.98ZM37.1868 87.07C36.6468 87.07 36.1601 86.9533 35.7268 86.72C35.2935 86.4867 34.9535 86.1633 34.7068 85.75C34.4668 85.33 34.3468 84.8567 34.3468 84.33C34.3468 83.8033 34.4668 83.3333 34.7068 82.92C34.9535 82.5067 35.2935 82.1833 35.7268 81.95C36.1601 81.7167 36.6468 81.6 37.1868 81.6C37.7335 81.6 38.2235 81.7167 38.6568 81.95C39.0901 82.1833 39.4268 82.5067 39.6668 82.92C39.9135 83.3333 40.0368 83.8033 40.0368 84.33C40.0368 84.8567 39.9135 85.33 39.6668 85.75C39.4268 86.1633 39.0901 86.4867 38.6568 86.72C38.2235 86.9533 37.7335 87.07 37.1868 87.07ZM37.1868 86C37.6468 86 38.0268 85.8467 38.3268 85.54C38.6268 85.2333 38.7768 84.83 38.7768 84.33C38.7768 83.83 38.6268 83.4267 38.3268 83.12C38.0268 82.8133 37.6468 82.66 37.1868 82.66C36.7268 82.66 36.3468 82.8133 36.0468 83.12C35.7535 83.4267 35.6068 83.83 35.6068 84.33C35.6068 84.83 35.7535 85.2333 36.0468 85.54C36.3468 85.8467 36.7268 86 37.1868 86ZM43.4916 84.86H42.5216V87H41.2716V81.66H42.5216V83.82H43.5216L45.1016 81.66H46.4416L44.5016 84.23L46.5716 87H45.1016L43.4916 84.86ZM49.6575 87.07C49.1175 87.07 48.6308 86.9533 48.1975 86.72C47.7642 86.4867 47.4242 86.1633 47.1775 85.75C46.9375 85.33 46.8175 84.8567 46.8175 84.33C46.8175 83.8033 46.9375 83.3333 47.1775 82.92C47.4242 82.5067 47.7642 82.1833 48.1975 81.95C48.6308 81.7167 49.1175 81.6 49.6575 81.6C50.2042 81.6 50.6942 81.7167 51.1275 81.95C51.5608 82.1833 51.8975 82.5067 52.1375 82.92C52.3842 83.3333 52.5075 83.8033 52.5075 84.33C52.5075 84.8567 52.3842 85.33 52.1375 85.75C51.8975 86.1633 51.5608 86.4867 51.1275 86.72C50.6942 86.9533 50.2042 87.07 49.6575 87.07ZM49.6575 86C50.1175 86 50.4975 85.8467 50.7975 85.54C51.0975 85.2333 51.2475 84.83 51.2475 84.33C51.2475 83.83 51.0975 83.4267 50.7975 83.12C50.4975 82.8133 50.1175 82.66 49.6575 82.66C49.1975 82.66 48.8175 82.8133 48.5175 83.12C48.2242 83.4267 48.0775 83.83 48.0775 84.33C48.0775 84.83 48.2242 85.2333 48.5175 85.54C48.8175 85.8467 49.1975 86 49.6575 86ZM58.5238 81.66V87H57.2738V82.72H55.2738L55.2238 83.78C55.1904 84.4867 55.1238 85.08 55.0238 85.56C54.9304 86.0333 54.7671 86.41 54.5338 86.69C54.3071 86.9633 53.9938 87.1 53.5938 87.1C53.4071 87.1 53.1771 87.0633 52.9038 86.99L52.9638 85.94C53.0571 85.96 53.1371 85.97 53.2038 85.97C53.4571 85.97 53.6471 85.87 53.7738 85.67C53.9004 85.4633 53.9804 85.22 54.0138 84.94C54.0538 84.6533 54.0871 84.2467 54.1138 83.72L54.2038 81.66H58.5238ZM62.1972 81.6C62.9839 81.6 63.5839 81.79 63.9972 82.17C64.4172 82.5433 64.6272 83.11 64.6272 83.87V87H63.4472V86.35C63.2939 86.5833 63.0739 86.7633 62.7872 86.89C62.5072 87.01 62.1672 87.07 61.7672 87.07C61.3672 87.07 61.0172 87.0033 60.7172 86.87C60.4172 86.73 60.1839 86.54 60.0172 86.3C59.8572 86.0533 59.7772 85.7767 59.7772 85.47C59.7772 84.99 59.9539 84.6067 60.3072 84.32C60.6672 84.0267 61.2305 83.88 61.9972 83.88H63.3772V83.8C63.3772 83.4267 63.2639 83.14 63.0372 82.94C62.8172 82.74 62.4872 82.64 62.0472 82.64C61.7472 82.64 61.4505 82.6867 61.1572 82.78C60.8705 82.8733 60.6272 83.0033 60.4272 83.17L59.9372 82.26C60.2172 82.0467 60.5539 81.8833 60.9472 81.77C61.3405 81.6567 61.7572 81.6 62.1972 81.6ZM62.0272 86.16C62.3405 86.16 62.6172 86.09 62.8572 85.95C63.1039 85.8033 63.2772 85.5967 63.3772 85.33V84.71H62.0872C61.3672 84.71 61.0072 84.9467 61.0072 85.42C61.0072 85.6467 61.0972 85.8267 61.2772 85.96C61.4572 86.0933 61.7072 86.16 62.0272 86.16ZM71.874 85.94V88.19H70.704V87H66.584V88.19H65.424V85.94H65.674C66.014 85.9267 66.244 85.71 66.364 85.29C66.4907 84.8633 66.574 84.2633 66.614 83.49L66.684 81.66H71.084V85.94H71.874ZM67.754 83.58C67.7273 84.1933 67.6773 84.6933 67.604 85.08C67.5307 85.4667 67.3973 85.7533 67.204 85.94H69.834V82.72H67.784L67.754 83.58ZM72.9904 81.66H74.2404V83.83H76.9304V81.66H78.1804V87H76.9304V84.89H74.2404V87H72.9904V81.66ZM82.4556 83.42C83.1356 83.42 83.6556 83.5733 84.0156 83.88C84.3756 84.1867 84.5556 84.62 84.5556 85.18C84.5556 85.7667 84.3556 86.22 83.9556 86.54C83.5623 86.86 83.0023 87.0167 82.2756 87.01L79.8556 87V81.66H81.1056V83.41L82.4556 83.42ZM85.2456 81.66H86.4956V87H85.2456V81.66ZM82.1656 86.09C82.5323 86.0967 82.8123 86.02 83.0056 85.86C83.199 85.7 83.2956 85.4667 83.2956 85.16C83.2956 84.86 83.2023 84.64 83.0156 84.5C82.829 84.36 82.5456 84.2867 82.1656 84.28L81.1056 84.27V86.08L82.1656 86.09ZM88.1759 81.66H89.4259V85.18L92.3759 81.66H93.5159V87H92.2659V83.48L89.3259 87H88.1759V81.66ZM90.7659 81.03C90.2259 81.03 89.8126 80.9067 89.5259 80.66C89.2459 80.4067 89.1026 80.04 89.0959 79.56H89.9259C89.9326 79.8 90.0059 79.99 90.1459 80.13C90.2926 80.27 90.4959 80.34 90.7559 80.34C91.0093 80.34 91.2093 80.27 91.3559 80.13C91.5093 79.99 91.5893 79.8 91.5959 79.56H92.4459C92.4393 80.04 92.2926 80.4067 92.0059 80.66C91.7193 80.9067 91.3059 81.03 90.7659 81.03ZM103.081 81.66V87H101.841V82.72H99.2111V87H97.9611V81.66H103.081ZM106.758 81.6C107.544 81.6 108.144 81.79 108.558 82.17C108.978 82.5433 109.188 83.11 109.188 83.87V87H108.008V86.35C107.854 86.5833 107.634 86.7633 107.348 86.89C107.068 87.01 106.728 87.07 106.328 87.07C105.928 87.07 105.578 87.0033 105.278 86.87C104.978 86.73 104.744 86.54 104.578 86.3C104.418 86.0533 104.338 85.7767 104.338 85.47C104.338 84.99 104.514 84.6067 104.868 84.32C105.228 84.0267 105.791 83.88 106.558 83.88H107.938V83.8C107.938 83.4267 107.824 83.14 107.598 82.94C107.378 82.74 107.048 82.64 106.608 82.64C106.308 82.64 106.011 82.6867 105.718 82.78C105.431 82.8733 105.188 83.0033 104.988 83.17L104.498 82.26C104.778 82.0467 105.114 81.8833 105.508 81.77C105.901 81.6567 106.318 81.6 106.758 81.6ZM106.588 86.16C106.901 86.16 107.178 86.09 107.418 85.95C107.664 85.8033 107.838 85.5967 107.938 85.33V84.71H106.648C105.928 84.71 105.568 84.9467 105.568 85.42C105.568 85.6467 105.658 85.8267 105.838 85.96C106.018 86.0933 106.268 86.16 106.588 86.16ZM110.735 81.66H111.985V83.83H114.675V81.66H115.925V87H114.675V84.89H111.985V87H110.735V81.66ZM119.82 84.86H118.85V87H117.6V81.66H118.85V83.82H119.85L121.43 81.66H122.77L120.83 84.23L122.9 87H121.43L119.82 84.86ZM128.606 84.36C128.606 84.4467 128.599 84.57 128.586 84.73H124.396C124.469 85.1233 124.659 85.4367 124.966 85.67C125.279 85.8967 125.666 86.01 126.126 86.01C126.712 86.01 127.196 85.8167 127.576 85.43L128.246 86.2C128.006 86.4867 127.702 86.7033 127.336 86.85C126.969 86.9967 126.556 87.07 126.096 87.07C125.509 87.07 124.992 86.9533 124.546 86.72C124.099 86.4867 123.752 86.1633 123.506 85.75C123.266 85.33 123.146 84.8567 123.146 84.33C123.146 83.81 123.262 83.3433 123.496 82.93C123.736 82.51 124.066 82.1833 124.486 81.95C124.906 81.7167 125.379 81.6 125.906 81.6C126.426 81.6 126.889 81.7167 127.296 81.95C127.709 82.1767 128.029 82.5 128.256 82.92C128.489 83.3333 128.606 83.8133 128.606 84.36ZM125.906 82.6C125.506 82.6 125.166 82.72 124.886 82.96C124.612 83.1933 124.446 83.5067 124.386 83.9H127.416C127.362 83.5133 127.199 83.2 126.926 82.96C126.652 82.72 126.312 82.6 125.906 82.6ZM129.973 81.66H131.223V85.18L134.173 81.66H135.313V87H134.063V83.48L131.123 87H129.973V81.66ZM132.563 81.03C132.023 81.03 131.609 80.9067 131.323 80.66C131.043 80.4067 130.899 80.04 130.893 79.56H131.723C131.729 79.8 131.803 79.99 131.943 80.13C132.089 80.27 132.293 80.34 132.553 80.34C132.806 80.34 133.006 80.27 133.153 80.13C133.306 79.99 133.386 79.8 133.393 79.56H134.243C134.236 80.04 134.089 80.4067 133.803 80.66C133.516 80.9067 133.103 81.03 132.563 81.03ZM139.214 84.86H138.244V87H136.994V81.66H138.244V83.82H139.244L140.824 81.66H142.164L140.224 84.23L142.294 87H140.824L139.214 84.86Z" fill="white"/>
<path d="M31.84 106.089H30.358V108H28.304V106.089H23.403V104.672L27.693 98.9H29.903L25.925 104.373H28.369V102.67H30.358V104.373H31.84V106.089ZM35.5645 102.319C36.8472 102.319 37.7918 102.575 38.3985 103.086C39.0138 103.597 39.3215 104.282 39.3215 105.14C39.3215 105.695 39.1828 106.202 38.9055 106.661C38.6282 107.112 38.2035 107.476 37.6315 107.753C37.0682 108.022 36.3705 108.156 35.5385 108.156C34.8972 108.156 34.2645 108.074 33.6405 107.909C33.0252 107.736 32.5008 107.493 32.0675 107.181L32.8995 105.569C33.2462 105.829 33.6448 106.033 34.0955 106.18C34.5462 106.319 35.0098 106.388 35.4865 106.388C36.0152 106.388 36.4312 106.284 36.7345 106.076C37.0378 105.868 37.1895 105.578 37.1895 105.205C37.1895 104.815 37.0292 104.52 36.7085 104.321C36.3965 104.122 35.8505 104.022 35.0705 104.022H32.7435L33.2115 98.9H38.7625V100.59H34.9665L34.8235 102.319H35.5645ZM44.0759 108.156C43.3219 108.156 42.6503 107.97 42.0609 107.597C41.4716 107.224 41.0079 106.687 40.6699 105.985C40.3406 105.274 40.1759 104.429 40.1759 103.45C40.1759 102.471 40.3406 101.63 40.6699 100.928C41.0079 100.217 41.4716 99.6757 42.0609 99.303C42.6503 98.9303 43.3219 98.744 44.0759 98.744C44.8299 98.744 45.5016 98.9303 46.0909 99.303C46.6803 99.6757 47.1396 100.217 47.4689 100.928C47.8069 101.63 47.9759 102.471 47.9759 103.45C47.9759 104.429 47.8069 105.274 47.4689 105.985C47.1396 106.687 46.6803 107.224 46.0909 107.597C45.5016 107.97 44.8299 108.156 44.0759 108.156ZM44.0759 106.375C44.6306 106.375 45.0639 106.137 45.3759 105.66C45.6966 105.183 45.8569 104.447 45.8569 103.45C45.8569 102.453 45.6966 101.717 45.3759 101.24C45.0639 100.763 44.6306 100.525 44.0759 100.525C43.5299 100.525 43.0966 100.763 42.7759 101.24C42.4639 101.717 42.3079 102.453 42.3079 103.45C42.3079 104.447 42.4639 105.183 42.7759 105.66C43.0966 106.137 43.5299 106.375 44.0759 106.375ZM55.9438 105.023V105.751H58.7518V106.83H55.9438V108H53.8248V106.83H52.5638V105.751H53.8248V98.9H57.7638C59.0032 98.9 59.9695 99.16 60.6628 99.68C61.3648 100.2 61.7158 100.963 61.7158 101.968C61.7158 102.965 61.3648 103.723 60.6628 104.243C59.9695 104.763 59.0032 105.023 57.7638 105.023H55.9438ZM59.5838 101.981C59.5838 101.539 59.4235 101.201 59.1028 100.967C58.7908 100.733 58.3402 100.616 57.7508 100.616H55.9438V103.372H57.7508C58.3402 103.372 58.7908 103.255 59.1028 103.021C59.4235 102.778 59.5838 102.432 59.5838 101.981Z" fill="white"/>
<path d="M259 95.5C259 89.1487 264.149 84 270.5 84C276.851 84 282 89.1487 282 95.5C282 101.851 276.851 107 270.5 107C264.149 107 259 101.851 259 95.5Z" fill="#F6F4F5" fill-opacity="0.81"/>
<path d="M272.119 98.5421L272.012 98.9789C271.691 99.1055 271.435 99.2018 271.245 99.268C271.054 99.3344 270.832 99.3675 270.579 99.3675C270.191 99.3675 269.89 99.2724 269.675 99.0836C269.459 98.8939 269.352 98.6537 269.352 98.3622C269.352 98.2494 269.359 98.1333 269.376 98.0151C269.392 97.8967 269.418 97.7633 269.454 97.6143L269.854 96.1961C269.89 96.0603 269.92 95.9316 269.944 95.8099C269.969 95.689 269.981 95.5778 269.981 95.4776C269.981 95.2965 269.944 95.1698 269.868 95.0986C269.794 95.0276 269.652 94.9915 269.44 94.9915C269.337 94.9915 269.23 95.0081 269.122 95.0402C269.013 95.0724 268.92 95.1035 268.841 95.1325L268.949 94.6953C269.211 94.5884 269.462 94.4968 269.702 94.4209C269.942 94.3448 270.168 94.3066 270.383 94.3066C270.768 94.3066 271.065 94.3998 271.275 94.5861C271.483 94.7726 271.588 95.0143 271.588 95.3121C271.588 95.3738 271.581 95.4823 271.566 95.6376C271.551 95.7931 271.525 95.9356 271.486 96.0652L271.087 97.4777C271.054 97.5912 271.024 97.7209 270.999 97.8668C270.973 98.0118 270.96 98.1226 270.96 98.1969C270.96 98.3844 271.002 98.5125 271.086 98.5806C271.17 98.6487 271.316 98.6825 271.522 98.6825C271.619 98.6825 271.729 98.6653 271.852 98.6315C271.974 98.5977 272.064 98.568 272.119 98.5421ZM272.22 92.612C272.22 92.8581 272.127 93.0683 271.941 93.2411C271.755 93.4145 271.531 93.5013 271.269 93.5013C271.006 93.5013 270.782 93.4145 270.594 93.2411C270.406 93.0682 270.312 92.8581 270.312 92.612C270.312 92.3663 270.406 92.1558 270.594 91.9809C270.781 91.8061 271.006 91.7188 271.269 91.7188C271.531 91.7188 271.755 91.8063 271.941 91.9809C272.127 92.1558 272.22 92.3664 272.22 92.612Z" fill="url(#paint1_linear)"/>
<path d="M250.333 51.6667C250.333 42.0938 258.094 34.3334 267.667 34.3334C277.24 34.3334 285 42.0938 285 51.6667C285 61.2397 277.24 69.0001 267.667 69.0001C258.094 69.0001 250.333 61.2397 250.333 51.6667Z" fill="url(#paint2_linear)"/>
<path d="M259 46.3617L262.146 47.2691L264.178 56.4728H271.454L274.6 51.4173" stroke="white"/>
<path d="M265.5 48.9579L268.533 51.9912L272.867 48.0912" stroke="white"/>
<defs>
<filter id="filter0_d" x="15.2933" y="21.085" width="48.9067" height="48.9163" filterUnits="userSpaceOnUse" color-interpolation-filters="sRGB">
<feFlood flood-opacity="0" result="BackgroundImageFix"/>
<feColorMatrix in="SourceAlpha" type="matrix" values="0 0 0 0 0 0 0 0 0 0 0 0 0 0 0 0 0 0 127 0"/>
<feOffset/>
<feGaussianBlur stdDeviation="5"/>
<feColorMatrix type="matrix" values="0 0 0 0 0 0 0 0 0 0 0 0 0 0 0 0 0 0 0.2 0"/>
<feBlend mode="normal" in2="BackgroundImageFix" result="effect1_dropShadow"/>
<feBlend mode="normal" in="SourceGraphic" in2="effect1_dropShadow" result="shape"/>
</filter>
<linearGradient id="paint0_linear" x1="155" y1="0" x2="154.672" y2="206.943" gradientUnits="userSpaceOnUse">
<stop stop-opacity="0.75"/>
<stop offset="1" stop-color="white" stop-opacity="0"/>
<stop offset="1" stop-opacity="0.78"/>
</linearGradient>
<linearGradient id="paint1_linear" x1="270.531" y1="91.7188" x2="270.531" y2="99.3675" gradientUnits="userSpaceOnUse">
<stop stop-color="#A01ECD"/>
<stop offset="1" stop-color="#435CEA" stop-opacity="0.77"/>
</linearGradient>
<linearGradient id="paint2_linear" x1="267.667" y1="34.3334" x2="267.667" y2="69.0001" gradientUnits="userSpaceOnUse">
<stop stop-color="#A01ECD"/>
<stop offset="1" stop-color="#435CEA" stop-opacity="0.77"/>
</linearGradient>
</defs>
</svg>
